<svg width="60" height="19" viewBox="0 0 60 19" fill="none" xmlns="http://www.w3.org/2000/svg">
<path d="M0.3 12.77C0.3 15.47 2.085 17.105 4.62 17.105C6.795 17.105 8.43 15.815 8.835 13.595H5.31C5.19 14 4.965 14.255 4.545 14.255C4.035 14.255 3.675 13.79 3.675 12.77C3.675 11.75 4.035 11.285 4.545 11.285C4.965 11.285 5.19 11.54 5.31 11.945H8.835C8.43 9.725 6.795 8.435 4.62 8.435C2.085 8.435 0.3 10.07 0.3 12.77ZM10.0406 12.77C10.0406 15.5 11.5856 17.105 13.5356 17.105C14.6606 17.105 15.4706 16.61 15.8756 15.845V17H19.1906V8.54H15.8756V9.695C15.4706 8.93 14.6606 8.435 13.5356 8.435C11.5856 8.435 10.0406 10.04 10.0406 12.77ZM15.8756 12.77C15.8756 13.7 15.3356 14.195 14.6456 14.195C13.9556 14.195 13.4156 13.7 13.4156 12.77C13.4156 11.84 13.9556 11.345 14.6456 11.345C15.3356 11.345 15.8756 11.84 15.8756 12.77ZM24.6159 13.535C24.6159 12.38 25.2459 12.035 26.4459 12.035H27.3909V8.48C26.2959 8.48 25.2759 9.155 24.6159 10.1V8.54H21.2859V17H24.6159V13.535ZM28.8879 17H32.2179V5.9H28.8879V17ZM42.8119 12.77C42.8119 10.07 40.8919 8.435 38.3419 8.435C35.7919 8.435 33.8719 10.07 33.8719 12.77C33.8719 15.47 35.7919 17.105 38.3419 17.105C40.8919 17.105 42.8119 15.47 42.8119 12.77ZM37.2469 12.77C37.2469 11.765 37.7569 11.315 38.3419 11.315C38.9269 11.315 39.4369 11.765 39.4369 12.77C39.4369 13.775 38.9269 14.225 38.3419 14.225C37.7419 14.225 37.2469 13.775 37.2469 12.77ZM51.823 14.465C51.823 11.21 47.398 12.185 47.398 11.135C47.398 10.88 47.593 10.745 47.923 10.745C48.463 10.745 48.793 11.015 48.883 11.465H51.838C51.598 9.8 50.413 8.435 47.998 8.435C45.613 8.435 44.398 9.695 44.398 11.225C44.398 14.33 48.763 13.31 48.763 14.42C48.763 14.63 48.553 14.81 48.208 14.81C47.698 14.81 47.293 14.585 47.218 14.075H44.023C44.173 15.8 45.778 17.105 48.223 17.105C50.473 17.105 51.823 15.965 51.823 14.465Z" fill="#1F1C1C"/>
<rect x="55" y="12" width="5" height="5" fill="#F9E63A"/>
</svg>
